<?xml version="1.0" standalone="no"?>
<!DOCTYPE svg PUBLIC "-//W3C//DTD SVG 20010904//EN"
 "http://www.w3.org/TR/2001/REC-SVG-20010904/DTD/svg10.dtd">
<svg version="1.0" xmlns="http://www.w3.org/2000/svg"
 width="152.000000pt" height="152.000000pt" viewBox="0 0 152.000000 152.000000"
 preserveAspectRatio="xMidYMid meet">
<metadata>
Created by potrace 1.11, written by Peter Selinger 2001-2013
</metadata>
<g transform="translate(0.000000,152.000000) scale(0.100000,-0.100000)"
fill="#000000" stroke="none">
<path d="M719 1362 c-28 -12 -709 -581 -715 -597 -8 -19 61 -105 83 -105 8 0
161 122 339 270 178 149 328 270 334 270 6 0 156 -121 334 -270 178 -148 331
-270 339 -270 22 0 91 86 84 105 -4 8 -54 53 -112 101 l-105 87 0 203 c0 175
-2 203 -16 208 -30 11 -190 6 -207 -6 -13 -10 -17 -33 -19 -107 l-3 -94 -123
103 c-98 82 -130 103 -160 106 -20 2 -44 0 -53 -4z"/>
<path d="M490 902 l-265 -218 -3 -244 c-2 -240 -2 -245 19 -263 19 -15 45 -17
210 -17 l189 0 0 180 0 180 120 0 120 0 0 -180 0 -180 189 0 c165 0 191 2 210
17 21 18 21 23 19 263 l-3 244 -265 218 c-145 120 -267 218 -270 218 -3 0
-125 -98 -270 -218z"/>
</g>
</svg>
